<svg width="15" height="15" viewBox="0 0 15 15" fill="none" xmlns="http://www.w3.org/2000/svg">
<path d="M7.44608 4.06064C9.42231 4.06064 11.0535 5.69181 11.0535 7.66804C11.0535 9.67563 9.42231 11.2754 7.44608 11.2754C5.43849 11.2754 3.83868 9.67563 3.83868 7.66804C3.83868 5.69181 5.43849 4.06064 7.44608 4.06064ZM7.44608 10.0207C8.7322 10.0207 9.76736 8.98552 9.76736 7.66804C9.76736 6.38192 8.7322 5.34675 7.44608 5.34675C6.1286 5.34675 5.09343 6.38192 5.09343 7.66804C5.09343 8.98552 6.15997 10.0207 7.44608 10.0207ZM12.0259 3.93516C12.0259 4.40569 11.6495 4.78212 11.179 4.78212C10.7084 4.78212 10.332 4.40569 10.332 3.93516C10.332 3.46463 10.7084 3.08821 11.179 3.08821C11.6495 3.08821 12.0259 3.46463 12.0259 3.93516ZM14.4099 4.78212C14.4727 5.94276 14.4727 9.42468 14.4099 10.5853C14.3472 11.7146 14.0962 12.687 13.2807 13.534C12.4651 14.3496 11.4613 14.6005 10.332 14.6633C9.17136 14.726 5.68943 14.726 4.52879 14.6633C3.39952 14.6005 2.42709 14.3496 1.58014 13.534C0.76455 12.687 0.513601 11.7146 0.450863 10.5853C0.388126 9.42468 0.388126 5.94276 0.450863 4.78212C0.513601 3.65285 0.76455 2.64905 1.58014 1.83346C2.42709 1.01788 3.39952 0.766926 4.52879 0.704188C5.68943 0.641451 9.17136 0.641451 10.332 0.704188C11.4613 0.766926 12.4651 1.01788 13.2807 1.83346C14.0962 2.64905 14.3472 3.65285 14.4099 4.78212ZM12.9042 11.8087C13.2807 10.899 13.1866 8.7032 13.1866 7.66804C13.1866 6.66424 13.2807 4.46843 12.9042 3.52737C12.6533 2.93137 12.1828 2.42947 11.5867 2.20989C10.6457 1.83346 8.44988 1.92757 7.44608 1.92757C6.41091 1.92757 4.21511 1.83346 3.30541 2.20989C2.67804 2.46083 2.20751 2.93137 1.95656 3.52737C1.58014 4.46843 1.67424 6.66424 1.67424 7.66804C1.67424 8.7032 1.58014 10.899 1.95656 11.8087C2.20751 12.4361 2.67804 12.9066 3.30541 13.1576C4.21511 13.534 6.41091 13.4399 7.44608 13.4399C8.44988 13.4399 10.6457 13.534 11.5867 13.1576C12.1828 12.9066 12.6847 12.4361 12.9042 11.8087Z" fill="#2E2222"/>
</svg>
