<svg width="17" height="14" viewBox="0 0 17 14" fill="none" xmlns="http://www.w3.org/2000/svg">
<path d="M14.8051 3.40569C14.8051 3.56254 14.8051 3.68801 14.8051 3.84486C14.8051 8.2051 11.5113 13.1927 5.45719 13.1927C3.57507 13.1927 1.84979 12.6595 0.40683 11.7184C0.657779 11.7498 0.908729 11.7811 1.19105 11.7811C2.72811 11.7811 4.1397 11.2479 5.26898 10.3695C3.82602 10.3382 2.60264 9.39711 2.19485 8.07963C2.41443 8.111 2.60264 8.14237 2.82222 8.14237C3.10454 8.14237 3.41822 8.07963 3.66917 8.01689C2.16348 7.7032 1.0342 6.38572 1.0342 4.78592V4.75455C1.47337 5.0055 2.00663 5.13097 2.5399 5.16234C1.63021 4.56634 1.06557 3.56254 1.06557 2.43326C1.06557 1.80589 1.22242 1.24125 1.50473 0.770724C3.13591 2.74695 5.58266 4.06444 8.31174 4.22128C8.249 3.97033 8.21763 3.71938 8.21763 3.46843C8.21763 1.64905 9.69196 0.174719 11.5113 0.174719C12.4524 0.174719 13.2994 0.551143 13.9267 1.20989C14.6482 1.05304 15.3697 0.770724 15.9971 0.394299C15.7461 1.17852 15.2442 1.80589 14.5541 2.21368C15.2129 2.15095 15.8716 1.96273 16.4362 1.71178C15.9971 2.37053 15.4324 2.93516 14.8051 3.40569Z" fill="#2E2222"/>
</svg>
